<svg width="60" height="22" viewBox="0 0 60 22" fill="none" xmlns="http://www.w3.org/2000/svg">
<rect width="59.984" height="22" rx="11" fill="#F47738" fill-opacity="0.12"/>
<path d="M12.6731 7.92488C12.4206 7.78339 12.1866 7.61108 11.9773 7.41277C11.5547 7.01194 11.2185 6.49911 10.9782 5.88879L10.6284 5L10.2786 5.88879C10.0383 6.49923 9.70213 7.01204 9.27947 7.41277C9.06925 7.61208 8.83522 7.78457 8.58432 7.92542L8 8.25333L8.58432 8.58125C8.83549 8.7222 9.06934 8.89458 9.27947 9.0939C9.70215 9.49454 10.0382 10.0073 10.2786 10.6178L10.6285 11.5066L10.9784 10.6178C11.2186 10.0074 11.5548 9.49463 11.9775 9.0938C12.1877 8.89459 12.4218 8.72201 12.6733 8.58088L13.258 8.25279L12.6731 7.92488Z" fill="#F47738"/>
<path d="M18.8126 11.8165C18.5561 11.6727 18.3182 11.4976 18.1059 11.2963C17.6721 10.8849 17.3257 10.3555 17.0768 9.72307L16.3771 7.94531L15.6774 9.72307C15.4284 10.3555 15.0822 10.8849 14.6483 11.2963C14.4348 11.4987 14.1972 11.6738 13.9422 11.8169L12.7734 12.4727L13.9423 13.1284C14.1973 13.2716 14.4349 13.4468 14.6483 13.6491C15.0822 14.0606 15.4285 14.5899 15.6775 15.2223L16.3771 17L17.0769 15.2223C17.3259 14.5897 17.6722 14.0605 18.1061 13.649C18.3196 13.4466 18.5575 13.2712 18.8127 13.1281L19.982 12.4722L18.8126 11.8165Z" fill="#F47738"/>
<path d="M35.5371 6.46875V15H34.4004L30.1055 8.41992V15H28.9746V6.46875H30.1055L34.418 13.0664V6.46875H35.5371ZM40.0078 15.1172C39.5664 15.1172 39.166 15.043 38.8066 14.8945C38.4512 14.7422 38.1445 14.5293 37.8867 14.2559C37.6328 13.9824 37.4375 13.6582 37.3008 13.2832C37.1641 12.9082 37.0957 12.498 37.0957 12.0527V11.8066C37.0957 11.291 37.1719 10.832 37.3242 10.4297C37.4766 10.0234 37.6836 9.67969 37.9453 9.39844C38.207 9.11719 38.5039 8.9043 38.8359 8.75977C39.168 8.61523 39.5117 8.54297 39.8672 8.54297C40.3203 8.54297 40.7109 8.62109 41.0391 8.77734C41.3711 8.93359 41.6426 9.15234 41.8535 9.43359C42.0645 9.71094 42.2207 10.0391 42.3223 10.418C42.4238 10.793 42.4746 11.2031 42.4746 11.6484V12.1348H37.7402V11.25H41.3906V11.168C41.375 10.8867 41.3164 10.6133 41.2148 10.3477C41.1172 10.082 40.9609 9.86328 40.7461 9.69141C40.5312 9.51953 40.2383 9.43359 39.8672 9.43359C39.6211 9.43359 39.3945 9.48633 39.1875 9.5918C38.9805 9.69336 38.8027 9.8457 38.6543 10.0488C38.5059 10.252 38.3906 10.5 38.3086 10.793C38.2266 11.0859 38.1855 11.4238 38.1855 11.8066V12.0527C38.1855 12.3535 38.2266 12.6367 38.3086 12.9023C38.3945 13.1641 38.5176 13.3945 38.6777 13.5938C38.8418 13.793 39.0391 13.9492 39.2695 14.0625C39.5039 14.1758 39.7695 14.2324 40.0664 14.2324C40.4492 14.2324 40.7734 14.1543 41.0391 13.998C41.3047 13.8418 41.5371 13.6328 41.7363 13.3711L42.3926 13.8926C42.2559 14.0996 42.082 14.2969 41.8711 14.4844C41.6602 14.6719 41.4004 14.8242 41.0918 14.9414C40.7871 15.0586 40.4258 15.1172 40.0078 15.1172ZM45.3457 13.875L46.9746 8.66016H47.6895L47.5488 9.69727L45.8906 15H45.1934L45.3457 13.875ZM44.25 8.66016L45.6387 13.9336L45.7383 15H45.0059L43.166 8.66016H44.25ZM49.248 13.8926L50.5723 8.66016H51.6504L49.8105 15H49.084L49.248 13.8926ZM47.8477 8.66016L49.4414 13.7871L49.623 15H48.9316L47.2266 9.68555L47.0859 8.66016H47.8477Z" fill="#F47738"/>
</svg>
