<svg width="24" height="24" viewBox="0 0 24 24" fill="none" xmlns="http://www.w3.org/2000/svg">
<path d="M17.0983 10.4404H19.0783L23.6983 23.2804H21.7783L20.4583 19.4404H15.4183L14.0383 23.2804H12.2383L17.0983 10.4404ZM19.9783 18.0004L17.9983 12.3004L15.9583 18.0004H19.9783Z" fill="#505A5F"/>
<path d="M0.538281 1.85977C0.778281 1.67977 1.13828 1.55977 1.49828 1.43977C1.91828 1.31977 2.27828 1.25977 2.63828 1.25977C2.99828 1.25977 3.35828 1.31977 3.71828 1.37977C4.07828 1.49977 4.37828 1.61977 4.61828 1.79977C4.85828 1.97977 5.09828 2.21977 5.21828 2.51977C5.39828 2.87977 5.45828 3.23977 5.45828 3.65977C5.45828 4.07977 5.33828 4.43977 5.15828 4.73977C4.97828 5.03977 4.73828 5.27977 4.49828 5.45977C4.67828 5.51977 4.91828 5.57977 5.09828 5.57977C5.33828 5.57977 5.57828 5.63977 5.75828 5.63977C6.05828 5.63977 6.35828 5.57977 6.65828 5.51977C6.95828 5.45977 7.13828 5.39977 7.25828 5.27977V2.63977H6.23828V1.43977H13.7983V2.63977H12.5983V10.6198H11.0383V2.63977H8.87828V10.6198H7.31828V6.71977C7.07828 6.83977 6.77828 6.89977 6.29828 6.89977C6.11828 6.89977 5.93828 6.89977 5.75828 6.83977C5.57828 6.77977 5.39828 6.77977 5.21828 6.65977C5.51828 7.01977 5.69828 7.43977 5.69828 7.91977C5.69828 8.69977 5.45828 9.29977 4.91828 9.71977C4.37828 10.1398 3.65828 10.3198 2.75828 10.3198C2.27828 10.3198 1.79828 10.2598 1.31828 10.0798C0.838281 9.95977 0.538281 9.77977 0.238281 9.53977L0.778281 8.45977C1.01828 8.63977 1.25828 8.75977 1.55828 8.87977C1.85828 8.99977 2.15828 9.05977 2.51828 9.05977C2.93828 9.05977 3.35828 8.93977 3.65828 8.69977C3.95828 8.45977 4.07828 8.15977 4.07828 7.67977C4.07828 7.25977 3.95828 6.89977 3.65828 6.65977C3.35828 6.41977 2.93828 6.35977 2.39828 6.35977H1.37828V5.15977H2.21828C2.69828 5.15977 3.11828 5.03977 3.41828 4.79977C3.71828 4.55977 3.89828 4.19977 3.89828 3.77977C3.89828 3.35977 3.77828 3.05977 3.47828 2.81977C3.17828 2.63977 2.87828 2.51977 2.45828 2.51977C2.21828 2.51977 1.97828 2.57977 1.73828 2.63977C1.49828 2.69977 1.25828 2.81977 1.01828 2.93977L0.538281 1.85977Z" fill="#505A5F"/>
<path d="M8.34063 16.6797L7.86063 17.1597L9.72063 19.0197H5.64062V19.6797H9.66063L7.80063 21.5397L8.28063 22.0197L10.9206 19.3197L8.34063 16.6797Z" fill="#505A5F"/>
<path d="M7.85922 19.0195H2.69922V19.6795H7.85922V19.0195Z" fill="#505A5F"/>
<path d="M2.66797 12.4719L2.66797 19.6719H3.32797L3.32797 12.4719H2.66797Z" fill="#505A5F"/>
</svg>
