<svg width="40" height="40" viewBox="0 0 40 40" fill="none" xmlns="http://www.w3.org/2000/svg">
<g clip-path="url(#clip0_9180_23766)">
<path d="M35.0013 8.33333C33.1513 7.75 31.118 7.5 29.168 7.5C25.918 7.5 22.418 8.16667 20.0013 10C17.5846 8.16667 14.0846 7.5 10.8346 7.5C7.58463 7.5 4.08464 8.16667 1.66797 10V34.4167C1.66797 34.8333 2.08464 35.25 2.5013 35.25C2.66797 35.25 2.7513 35.1667 2.91797 35.1667C5.16797 34.0833 8.41797 33.3333 10.8346 33.3333C14.0846 33.3333 17.5846 34 20.0013 35.8333C22.2513 34.4167 26.3346 33.3333 29.168 33.3333C31.918 33.3333 34.7513 33.8333 37.0846 35.0833C37.2513 35.1667 37.3346 35.1667 37.5013 35.1667C37.918 35.1667 38.3346 34.75 38.3346 34.3333V10C37.3346 9.25 36.2513 8.75 35.0013 8.33333ZM35.0013 30.8333C33.168 30.25 31.168 30 29.168 30C26.3346 30 22.2513 31.0833 20.0013 32.5V13.3333C22.2513 11.9167 26.3346 10.8333 29.168 10.8333C31.168 10.8333 33.168 11.0833 35.0013 11.6667V30.8333Z" fill="#F47738"/>
<path d="M29.168 17.5C30.6346 17.5 32.0513 17.65 33.3346 17.9333V15.4C32.018 15.15 30.6013 15 29.168 15C26.3346 15 23.768 15.4833 21.668 16.3833V19.15C23.5513 18.0833 26.168 17.5 29.168 17.5Z" fill="#F47738"/>
<path d="M21.668 20.813V23.5797C23.5513 22.513 26.168 21.9297 29.168 21.9297C30.6346 21.9297 32.0513 22.0797 33.3346 22.363V19.8297C32.018 19.5797 30.6013 19.4297 29.168 19.4297C26.3346 19.4297 23.768 19.9297 21.668 20.813Z" fill="#F47738"/>
<path d="M29.168 23.8828C26.3346 23.8828 23.768 24.3661 21.668 25.2661V28.0328C23.5513 26.9661 26.168 26.3828 29.168 26.3828C30.6346 26.3828 32.0513 26.5328 33.3346 26.8161V24.2828C32.018 24.0161 30.6013 23.8828 29.168 23.8828Z" fill="#F47738"/>
</g>
<defs>
<clipPath id="clip0_9180_23766">
<rect width="40" height="40" fill="white"/>
</clipPath>
</defs>
</svg>
