<svg width="40" height="40" viewBox="0 0 40 40" fill="none" xmlns="http://www.w3.org/2000/svg">
<g clip-path="url(#clip0_2014_32858)">
<path d="M36.1151 30.2835L27.2818 21.4502H25.6318L21.3984 25.6835V27.3335L30.2318 36.1669C30.8818 36.8169 31.9318 36.8169 32.5818 36.1669L36.1151 32.6335C36.7651 32.0002 36.7651 30.9335 36.1151 30.2835Z" fill="#C84C0E"/>
<path d="M28.8987 16.9837L31.2487 14.6337L34.782 18.167C36.732 16.217 36.732 13.0503 34.782 11.1003L28.882 5.20033L26.532 7.55033V2.85033L25.3654 1.66699L19.4654 7.56699L20.6487 8.75032H25.3654L23.0154 11.1003L24.782 12.867L19.9654 17.6837L13.082 10.8003V8.43366L8.0487 3.40033L3.33203 8.11699L8.38203 13.167H10.732L17.6154 20.0503L16.1987 21.467H12.6654L3.83203 30.3003C3.18203 30.9503 3.18203 32.0003 3.83203 32.6503L7.36536 36.1837C8.01536 36.8337 9.06536 36.8337 9.71536 36.1837L18.5487 27.3503V23.817L27.132 15.2337L28.8987 16.9837Z" fill="#C84C0E"/>
</g>
<defs>
<clipPath id="clip0_2014_32858">
<rect width="40" height="40" fill="white"/>
</clipPath>
</defs>
</svg>