<svg width="34" height="34" viewBox="0 0 32 32" fill="none" xmlns="http://www.w3.org/2000/svg">
<path d="M0.400391 32H31.6002C31.8211 32 32.0003 31.8209 32.0003 31.5999L32 0.400111C32 0.179127 31.8209 0 31.5999 0H0.400112C0.179128 0 0 0.179127 0 0.400111V31.5999C0 31.8206 0.179128 31.9997 0.400112 31.9997L0.400391 32ZM0.800223 0.800223H31.2V31.2H0.800223V0.800223Z" fill="#F47738"/>
<path d="M28.0442 3.55708H3.9587C3.73772 3.55708 3.55859 3.7362 3.55859 3.95719V28.042C3.55859 28.263 3.73772 28.4421 3.9587 28.4421H28.0435C28.2645 28.4421 28.4436 28.263 28.4436 28.042V3.95647C28.4436 3.73578 28.2645 3.55664 28.0438 3.55664L28.0442 3.55708ZM23.3819 27.6419H18.9888C19.0125 26.443 19.1403 25.7901 19.2762 25.1087C19.3499 24.7393 19.4246 24.3621 19.4821 23.8956C20.0998 24.0063 20.8328 24.0976 22.0067 24.0976C22.7846 24.0976 23.3688 24.0574 23.8546 23.9982C23.8052 24.3439 23.746 24.6461 23.6849 24.9525C23.5471 25.6419 23.4068 26.3595 23.3819 27.6419V27.6419ZM9.07203 24.0747C9.34992 24.0887 9.65321 24.0976 9.99916 24.0976C11.5404 24.0976 12.3234 23.9405 13.0809 23.7887C13.2221 23.7605 13.363 23.7329 13.5064 23.7059C13.4517 24.1824 13.3767 24.563 13.2988 24.9525C13.1613 25.6419 13.0209 26.3595 12.9961 27.6419H8.60328C8.62699 26.443 8.75479 25.7901 8.89066 25.1087C8.95456 24.7884 9.01873 24.4594 9.07203 24.0746V24.0747ZM8.89066 6.88912C8.75479 6.20804 8.62699 5.55542 8.60328 4.35707H12.9964C13.0212 5.63913 13.1616 6.3562 13.2991 7.04569C13.3159 7.12996 13.3326 7.21394 13.3491 7.29849C13.204 7.32555 13.0625 7.35345 12.9238 7.38107C12.1716 7.53174 11.4612 7.67432 9.99951 7.67432C9.634 7.67432 9.31537 7.66539 9.03131 7.64977C8.98722 7.37856 8.93895 7.1308 8.89068 6.8892L8.89066 6.88912ZM23.6848 7.04537C23.72 7.22115 23.7543 7.39526 23.7867 7.57662C23.3216 7.63493 22.7666 7.67372 22.0066 7.67372C20.7387 7.67372 20.0367 7.5663 19.3819 7.43935C19.3478 7.24822 19.3118 7.06714 19.2761 6.88857C19.1402 6.20749 19.0124 5.55487 18.9887 4.35652H23.3818C23.4067 5.63887 23.547 6.35593 23.6848 7.04543L23.6848 7.04537ZM19.0824 17.796C19.0236 17.3264 18.9837 16.7664 18.9837 15.9961C18.9837 14.7654 19.0841 14.0673 19.2052 13.428C19.8849 13.5603 20.6533 13.6817 22.0063 13.6817C22.6315 13.6817 23.1282 13.6552 23.5528 13.6141C23.4543 14.2037 23.3765 14.911 23.3765 15.9961C23.3765 16.8736 23.4278 17.502 23.499 18.0238C23.0927 18.0637 22.6173 18.0896 22.0063 18.0896C20.5456 18.0896 19.8355 17.9473 19.0841 17.7964C19.0836 17.7961 19.083 17.7961 19.0825 17.7961L19.0824 17.796ZM14.0833 18.9291C14.0496 18.7597 14.0164 18.5912 13.9851 18.4171C14.4985 18.3412 15.1104 18.2876 16.0049 18.2876C17.1112 18.2876 17.7864 18.3694 18.3757 18.4746C18.4128 18.6883 18.4524 18.8883 18.4917 19.0856C18.6424 19.84 18.7844 20.5527 18.7844 22.0189C18.7844 22.3657 18.7761 22.6676 18.7618 22.9404C18.0925 22.8115 17.329 22.6952 16.0048 22.6952C15.338 22.6952 14.8182 22.7256 14.3759 22.7713C14.3849 22.5395 14.3916 22.2951 14.3916 22.0189C14.3913 20.4734 14.2347 19.6882 14.0832 18.929L14.0833 18.9291ZM16.0046 17.4874C15.0665 17.4874 14.4114 17.546 13.8698 17.6258C13.8221 17.1905 13.7906 16.6763 13.7906 15.9961C13.7906 14.618 13.9164 13.9065 14.0565 13.1995C14.5557 13.1289 15.1502 13.0798 16.0046 13.0798C17.1393 13.0798 17.8201 13.166 18.4203 13.2751C18.2947 13.9361 18.1837 14.6964 18.1837 15.9961C18.1837 16.6724 18.2146 17.1981 18.2609 17.6448C17.6962 17.5555 17.0143 17.4874 16.0045 17.4874L16.0046 17.4874ZM4.35898 13.0842C5.5749 13.1062 6.23232 13.2354 6.91725 13.3727C7.24621 13.4385 7.58409 13.5047 7.98281 13.5594C7.88013 14.1595 7.79783 14.8777 7.79783 15.996C7.79783 16.8322 7.84442 17.4421 7.91027 17.9494C7.61256 17.9034 7.34582 17.8503 7.07463 17.7959C6.381 17.657 5.65836 17.515 4.35872 17.4918L4.35898 13.0842ZM8.59781 15.996C8.59781 14.9006 8.67733 14.2262 8.78001 13.6408C9.13129 13.6657 9.52636 13.6816 9.99871 13.6816C11.54 13.6816 12.3229 13.5245 13.0805 13.3727C13.1251 13.3638 13.1695 13.3551 13.2138 13.3462C13.0939 13.9913 12.9906 14.7424 12.9906 15.996C12.9906 16.7332 13.0269 17.2943 13.0805 17.765C13.028 17.7753 12.9753 17.7857 12.9234 17.7963C12.1712 17.9469 11.4608 18.0895 9.99906 18.0895C9.49654 18.0895 9.0872 18.0719 8.73006 18.0435C8.6525 17.5242 8.59781 16.9053 8.59781 15.9961V15.996ZM18.7842 9.97735C18.7842 11.1726 18.6893 11.8655 18.5729 12.4896C17.946 12.3755 17.2069 12.2795 16.0049 12.2795C15.2558 12.2795 14.6879 12.3169 14.2131 12.3724C14.3127 11.7801 14.3916 11.0703 14.3916 9.97709C14.3916 9.10681 14.3411 8.48153 14.2708 7.96261C14.7264 7.90764 15.2708 7.87165 16.0052 7.87165C17.3037 7.87165 18.0088 7.98437 18.6776 8.11524C18.7406 8.59765 18.7841 9.17216 18.7841 9.97737L18.7842 9.97735ZM24.1767 15.996C24.1767 14.8141 24.2696 14.1235 24.384 13.5047C24.6323 13.4628 24.862 13.4179 25.0868 13.373C25.7718 13.2357 26.4289 13.1065 27.644 13.0845V17.4924C26.3449 17.5155 25.6228 17.6576 24.9295 17.7965C24.7199 17.8386 24.5121 17.8794 24.2919 17.9173C24.2239 17.4226 24.1767 16.8342 24.1767 15.996V15.996ZM27.644 12.2843C26.3449 12.3074 25.6228 12.4494 24.9295 12.5884C24.8025 12.6138 24.6756 12.6389 24.5472 12.6632C24.67 12.01 24.7771 11.2541 24.7771 9.97733C24.7771 9.25748 24.7423 8.70641 24.6906 8.24241C24.8254 8.21702 24.9574 8.19108 25.0868 8.16513C25.7718 8.02785 26.4289 7.89867 27.644 7.87662L27.644 12.2843ZM23.9769 9.97735C23.9769 11.3686 23.8488 12.0806 23.7071 12.7943C23.2582 12.8471 22.7233 12.8817 22.0063 12.8817C20.7231 12.8817 20.0194 12.7717 19.3579 12.6428C19.4789 11.9944 19.5841 11.241 19.5841 9.97742C19.5841 9.27429 19.5509 8.73328 19.5013 8.27571C20.1148 8.38481 20.8453 8.47409 22.0065 8.47409C22.8101 8.47409 23.4049 8.43084 23.9002 8.36862C23.9465 8.79914 23.977 9.30754 23.977 9.9774L23.9769 9.97735ZM18.4917 7.04516C18.5071 7.12189 18.5221 7.19834 18.5372 7.27507C17.9178 7.16374 17.1837 7.07167 16.0049 7.07167C15.2172 7.07167 14.629 7.11296 14.1397 7.17323C14.121 7.07697 14.1023 6.98238 14.0833 6.88835C13.9474 6.20727 13.8196 5.55465 13.7959 4.3563H18.189C18.2139 5.63865 18.3542 6.35571 18.4918 7.04521L18.4917 7.04516ZM9.99894 8.47372C11.5402 8.47372 12.3231 8.31663 13.0807 8.16485C13.2132 8.13834 13.3458 8.1124 13.4803 8.08701C13.5458 8.575 13.5913 9.15621 13.5913 9.97707C13.5913 11.1791 13.4953 11.873 13.3781 12.5002C13.2227 12.5289 13.0718 12.5585 12.9236 12.5884C12.1714 12.739 11.461 12.8816 9.99928 12.8816C9.58913 12.8816 9.24229 12.8696 8.93286 12.8501C9.06958 12.152 9.1982 11.3772 9.1982 9.97732C9.1982 9.36376 9.17281 8.87325 9.13375 8.45361C9.39547 8.46561 9.67755 8.4737 9.99896 8.4737L9.99894 8.47372ZM8.39795 9.97735C8.39795 11.3546 8.2724 12.0663 8.13232 12.7728C7.74198 12.7207 7.41076 12.6559 7.07455 12.5884C6.38092 12.4495 5.65827 12.3074 4.35864 12.2843L4.35892 7.87638C5.57484 7.89842 6.23226 8.02761 6.91718 8.16489C7.33543 8.24859 7.76625 8.33314 8.32317 8.39284C8.36837 8.8189 8.39795 9.31998 8.39795 9.9774L8.39795 9.97735ZM4.35891 18.2923C5.57483 18.3143 6.23225 18.4435 6.91718 18.5808C7.26316 18.65 7.61806 18.7197 8.04467 18.7758C8.06476 18.8805 8.08513 18.9837 8.10549 19.0855C8.25589 19.84 8.39791 20.5526 8.39791 22.0188C8.39791 22.4884 8.38228 22.8751 8.35745 23.2164C7.86387 23.1611 7.47353 23.0841 7.07453 23.004C6.3809 22.8651 5.65825 22.7231 4.35862 22.6999L4.35891 18.2923ZM8.89016 18.9293C8.88514 18.9047 8.8804 18.8802 8.87565 18.8553C9.20322 18.8763 9.56956 18.8894 9.999 18.8894C11.5403 18.8894 12.3232 18.7323 13.0808 18.5805C13.1198 18.5727 13.1586 18.5652 13.1974 18.5574C13.2303 18.7398 13.2644 18.9139 13.2987 19.0855C13.4493 19.84 13.5914 20.5526 13.5914 22.0188C13.5914 22.3416 13.5836 22.6229 13.5713 22.8812C13.3439 22.9203 13.1318 22.9621 12.9234 23.004C12.1715 23.1549 11.4608 23.2972 9.99928 23.2972C9.68371 23.2972 9.40861 23.2894 9.155 23.2777C9.18123 22.9169 9.19825 22.5093 9.19825 22.0188C9.19797 20.4736 9.04173 19.6884 8.89022 18.9292L8.89016 18.9293ZM14.0832 25.1087C14.1728 24.6603 14.2632 24.1985 14.3229 23.5808C14.7682 23.5291 15.2975 23.4954 16.0048 23.4954C17.3153 23.4954 18.0212 23.6101 18.6953 23.7426C18.6409 24.2027 18.5673 24.5726 18.4917 24.9524C18.3541 25.6419 18.2138 26.3595 18.1889 27.6418H13.7955C13.8192 26.4429 13.9473 25.79 14.0832 25.1086L14.0832 25.1087ZM22.006 23.2976C20.8478 23.2976 20.1628 23.2078 19.5534 23.0953C19.5724 22.7798 19.5839 22.4271 19.5839 22.0192C19.5839 20.474 19.4273 19.6889 19.2758 18.9294C19.2566 18.8325 19.2373 18.736 19.2186 18.6389C19.8952 18.7703 20.6623 18.8897 22.006 18.8897C22.6706 18.8897 23.1889 18.8596 23.6304 18.8141C23.6482 18.9059 23.6661 18.996 23.6839 19.0859C23.8346 19.8403 23.9766 20.5529 23.9766 22.0191C23.9766 22.472 23.9619 22.8473 23.9387 23.1799C23.4426 23.2491 22.8519 23.2976 22.0059 23.2976L22.006 23.2976ZM24.4688 18.9294C24.454 18.8549 24.4393 18.7806 24.4247 18.7059C24.6574 18.666 24.8742 18.6233 25.0866 18.5809C25.7716 18.4436 26.4286 18.3144 27.6438 18.2924V22.7003C26.3446 22.7234 25.6226 22.8654 24.9292 23.0044C24.8695 23.0164 24.8098 23.0281 24.7504 23.0398C24.7671 22.7388 24.7769 22.4025 24.7769 22.0189C24.7769 20.4737 24.6203 19.6886 24.4688 18.9294L24.4688 18.9294ZM27.6437 7.07659C26.3446 7.09975 25.6225 7.24176 24.9292 7.38071C24.8117 7.40415 24.6945 7.42731 24.5762 7.44991C24.5416 7.25487 24.5051 7.07073 24.4688 6.88881C24.3329 6.20773 24.2051 5.5551 24.1814 4.35675H27.6438L27.6437 7.07659ZM7.80246 4.35675C7.82729 5.63881 7.96763 6.35588 8.10519 7.04509C8.14007 7.22059 8.17438 7.39441 8.20675 7.57522C7.78265 7.52165 7.4319 7.45245 7.07426 7.38074C6.38063 7.24179 5.65799 7.09977 4.35835 7.07662V4.35678L7.80246 4.35675ZM4.35855 23.4995C5.57447 23.5215 6.23161 23.6507 6.91682 23.7883C7.32251 23.8694 7.73988 23.9515 8.27281 24.0109C8.2237 24.3513 8.16539 24.6493 8.10512 24.952C7.96756 25.6415 7.82722 26.3591 7.80238 27.6415H4.35848L4.35855 23.4995ZM24.1813 27.6414C24.205 26.4425 24.3328 25.7896 24.4686 25.1082C24.544 24.7313 24.6202 24.3474 24.6782 23.8678C24.8171 23.8415 24.953 23.815 25.0864 23.7882C25.7714 23.651 26.4285 23.5218 27.6436 23.4997V27.6417L24.1813 27.6414Z" fill="#F47738"/>
</svg>
