<svg width="36" height="36" viewBox="0 0 40 40" fill="none" xmlns="http://www.w3.org/2000/svg">
<g clip-path="url(#clip0_45283_103769)">
<path fill-rule="evenodd" clip-rule="evenodd" d="M27.7852 21.8828C30.0685 23.4328 31.6685 25.5328 31.6685 28.3328V33.3328H38.3352V28.3328C38.3352 24.6995 32.3852 22.5495 27.7852 21.8828Z" fill="#F47738"/>
<path d="M15.0026 19.9993C18.6845 19.9993 21.6693 17.0146 21.6693 13.3327C21.6693 9.65078 18.6845 6.66602 15.0026 6.66602C11.3207 6.66602 8.33594 9.65078 8.33594 13.3327C8.33594 17.0146 11.3207 19.9993 15.0026 19.9993Z" fill="#F47738"/>
<path fill-rule="evenodd" clip-rule="evenodd" d="M25.0018 19.9993C28.6852 19.9993 31.6685 17.016 31.6685 13.3327C31.6685 9.64935 28.6852 6.66602 25.0018 6.66602C24.2185 6.66602 23.4852 6.83268 22.7852 7.06602C24.1685 8.78268 25.0018 10.966 25.0018 13.3327C25.0018 15.6993 24.1685 17.8827 22.7852 19.5993C23.4852 19.8327 24.2185 19.9993 25.0018 19.9993Z" fill="#F47738"/>
<path fill-rule="evenodd" clip-rule="evenodd" d="M15.0013 21.666C10.5513 21.666 1.66797 23.8993 1.66797 28.3327V33.3327H28.3346V28.3327C28.3346 23.8993 19.4513 21.666 15.0013 21.666Z" fill="#F47738"/>
</g>
</svg>
