<?xml version="1.0" encoding="us-ascii" standalone="no"?><svg xmlns="http://www.w3.org/2000/svg" xmlns:xlink="http://www.w3.org/1999/xlink" contentStyleType="text/css" height="713px" preserveAspectRatio="none" style="width:916px;height:713px;background:#FFFFFF;" version="1.1" viewBox="0 0 916 713" width="916px" zoomAndPan="magnify"><defs/><g><rect fill="#FFA07A" height="701.9141" style="stroke:#181818;stroke-width:0.5;" width="134" x="1" y="6"/><text fill="#000000" font-family="sans-serif" font-size="13" font-weight="bold" lengthAdjust="spacing" textLength="48" x="44" y="18.0669">Works</text><rect fill="#FFA500" height="701.9141" style="stroke:#181818;stroke-width:0.5;" width="323" x="287" y="6"/><text fill="#000000" font-family="sans-serif" font-size="13" font-weight="bold" lengthAdjust="spacing" textLength="82" x="407.5" y="18.0669">MuktaSoft</text><line style="stroke:#181818;stroke-width:0.5;stroke-dasharray:5.0,5.0;" x1="68" x2="68" y1="56.4297" y2="673.6172"/><line style="stroke:#181818;stroke-width:0.5;stroke-dasharray:5.0,5.0;" x1="344" x2="344" y1="56.4297" y2="673.6172"/><line style="stroke:#181818;stroke-width:0.5;stroke-dasharray:5.0,5.0;" x1="565" x2="565" y1="56.4297" y2="673.6172"/><line style="stroke:#181818;stroke-width:0.5;stroke-dasharray:5.0,5.0;" x1="631" x2="631" y1="56.4297" y2="673.6172"/><rect fill="#E2E2F0" height="30.2969" rx="2.5" ry="2.5" style="stroke:#181818;stroke-width:0.5;" width="126" x="5" y="25.1328"/><text fill="#000000" font-family="sans-serif" font-size="14" lengthAdjust="spacing" textLength="112" x="12" y="45.1279">PaymentAdvice</text><rect fill="#E2E2F0" height="30.2969" rx="2.5" ry="2.5" style="stroke:#181818;stroke-width:0.5;" width="126" x="5" y="672.6172"/><text fill="#000000" font-family="sans-serif" font-size="14" lengthAdjust="spacing" textLength="112" x="12" y="692.6123">PaymentAdvice</text><rect fill="#E2E2F0" height="30.2969" rx="2.5" ry="2.5" style="stroke:#181818;stroke-width:0.5;" width="106" x="291" y="25.1328"/><text fill="#000000" font-family="sans-serif" font-size="14" lengthAdjust="spacing" textLength="92" x="298" y="45.1279">IFMSAdapter</text><rect fill="#E2E2F0" height="30.2969" rx="2.5" ry="2.5" style="stroke:#181818;stroke-width:0.5;" width="106" x="291" y="672.6172"/><text fill="#000000" font-family="sans-serif" font-size="14" lengthAdjust="spacing" textLength="92" x="298" y="692.6123">IFMSAdapter</text><rect fill="#E2E2F0" height="30.2969" rx="2.5" ry="2.5" style="stroke:#181818;stroke-width:0.5;" width="82" x="524" y="25.1328"/><text fill="#000000" font-family="sans-serif" font-size="14" lengthAdjust="spacing" textLength="68" x="531" y="45.1279">Database</text><rect fill="#E2E2F0" height="30.2969" rx="2.5" ry="2.5" style="stroke:#181818;stroke-width:0.5;" width="82" x="524" y="672.6172"/><text fill="#000000" font-family="sans-serif" font-size="14" lengthAdjust="spacing" textLength="68" x="531" y="692.6123">Database</text><rect fill="#E2E2F0" height="30.2969" rx="2.5" ry="2.5" style="stroke:#181818;stroke-width:0.5;" width="31" x="616" y="25.1328"/><text fill="#000000" font-family="sans-serif" font-size="14" lengthAdjust="spacing" textLength="17" x="623" y="45.1279">JIT</text><rect fill="#E2E2F0" height="30.2969" rx="2.5" ry="2.5" style="stroke:#181818;stroke-width:0.5;" width="31" x="616" y="672.6172"/><text fill="#000000" font-family="sans-serif" font-size="14" lengthAdjust="spacing" textLength="17" x="623" y="692.6123">JIT</text><polygon fill="#181818" points="619.5,101.6953,629.5,105.6953,619.5,109.6953,623.5,105.6953" style="stroke:#181818;stroke-width:1.0;"/><line style="stroke:#181818;stroke-width:1.0;" x1="344" x2="625.5" y1="105.6953" y2="105.6953"/><text fill="#000000" font-family="sans-serif" font-size="13" lengthAdjust="spacing" textLength="143" x="351" y="85.4966">Poll for PI status for all</text><text fill="#000000" font-family="sans-serif" font-size="13" lengthAdjust="spacing" textLength="135" x="355" y="100.6294">PIs in INITIATED state</text><path d="M636,71.4297 L636,111.4297 L863,111.4297 L863,81.4297 L853,71.4297 L636,71.4297 " fill="#FEFFDD" style="stroke:#181818;stroke-width:0.5;"/><path d="M853,71.4297 L853,81.4297 L863,81.4297 L853,71.4297 " fill="#FEFFDD" style="stroke:#181818;stroke-width:0.5;"/><text fill="#000000" font-family="sans-serif" font-size="13" lengthAdjust="spacing" textLength="206" x="642" y="88.4966">This has to be done one by one.</text><text fill="#000000" font-family="sans-serif" font-size="13" lengthAdjust="spacing" textLength="170" x="646" y="103.6294">There is no bulk polling API</text><polygon fill="#008000" points="355,133.8281,345,137.8281,355,141.8281,351,137.8281" style="stroke:#008000;stroke-width:1.0;"/><line style="stroke:#008000;stroke-width:1.0;" x1="349" x2="630.5" y1="137.8281" y2="137.8281"/><text fill="#000000" font-family="sans-serif" font-size="13" lengthAdjust="spacing" textLength="76" x="361" y="132.7622">PI approved</text><polygon fill="#181818" points="553,162.9609,563,166.9609,553,170.9609,557,166.9609" style="stroke:#181818;stroke-width:1.0;"/><line style="stroke:#181818;stroke-width:1.0;" x1="344" x2="559" y1="166.9609" y2="166.9609"/><text fill="#000000" font-family="sans-serif" font-size="13" lengthAdjust="spacing" textLength="190" x="351" y="161.895">Update PI to APPROVED state</text><polygon fill="#181818" points="79,192.0938,69,196.0938,79,200.0938,75,196.0938" style="stroke:#181818;stroke-width:1.0;"/><line style="stroke:#181818;stroke-width:1.0;" x1="73" x2="343" y1="196.0938" y2="196.0938"/><text fill="#000000" font-family="sans-serif" font-size="13" lengthAdjust="spacing" textLength="237" x="85" y="191.0278">Update payment to APPROVED state</text><polygon fill="#181818" points="619.5,239.3594,629.5,243.3594,619.5,247.3594,623.5,243.3594" style="stroke:#181818;stroke-width:1.0;"/><line style="stroke:#181818;stroke-width:1.0;" x1="344" x2="625.5" y1="243.3594" y2="243.3594"/><text fill="#000000" font-family="sans-serif" font-size="13" lengthAdjust="spacing" textLength="159" x="351" y="223.1606">Poll for PAG status for all</text><text fill="#000000" font-family="sans-serif" font-size="13" lengthAdjust="spacing" textLength="145" x="355" y="238.2935">PIs in APPROVED state</text><path d="M636,209.0938 L636,249.0938 L863,249.0938 L863,219.0938 L853,209.0938 L636,209.0938 " fill="#FEFFDD" style="stroke:#181818;stroke-width:0.5;"/><path d="M853,209.0938 L853,219.0938 L863,219.0938 L853,209.0938 " fill="#FEFFDD" style="stroke:#181818;stroke-width:0.5;"/><text fill="#000000" font-family="sans-serif" font-size="13" lengthAdjust="spacing" textLength="206" x="642" y="226.1606">This has to be done one by one.</text><text fill="#000000" font-family="sans-serif" font-size="13" lengthAdjust="spacing" textLength="170" x="646" y="241.2935">There is no bulk polling API</text><polygon fill="#008000" points="355,271.4922,345,275.4922,355,279.4922,351,275.4922" style="stroke:#008000;stroke-width:1.0;"/><line style="stroke:#008000;stroke-width:1.0;" x1="349" x2="630.5" y1="275.4922" y2="275.4922"/><text fill="#000000" font-family="sans-serif" font-size="13" lengthAdjust="spacing" textLength="263" x="361" y="270.4263">Payment Advice generation confirmation</text><polygon fill="#181818" points="553,300.625,563,304.625,553,308.625,557,304.625" style="stroke:#181818;stroke-width:1.0;"/><line style="stroke:#181818;stroke-width:1.0;" x1="344" x2="559" y1="304.625" y2="304.625"/><text fill="#000000" font-family="sans-serif" font-size="13" lengthAdjust="spacing" textLength="191" x="351" y="299.5591">Update PI to INPROCESS state</text><polygon fill="#181818" points="79,329.7578,69,333.7578,79,337.7578,75,333.7578" style="stroke:#181818;stroke-width:1.0;"/><line style="stroke:#181818;stroke-width:1.0;" x1="73" x2="343" y1="333.7578" y2="333.7578"/><text fill="#000000" font-family="sans-serif" font-size="13" lengthAdjust="spacing" textLength="238" x="85" y="328.6919">Update payment to INPROCESS state</text><polygon fill="#181818" points="619.5,377.0234,629.5,381.0234,619.5,385.0234,623.5,381.0234" style="stroke:#181818;stroke-width:1.0;"/><line style="stroke:#181818;stroke-width:1.0;" x1="344" x2="625.5" y1="381.0234" y2="381.0234"/><text fill="#000000" font-family="sans-serif" font-size="13" lengthAdjust="spacing" textLength="150" x="351" y="360.8247">Poll for PD status for all</text><text fill="#000000" font-family="sans-serif" font-size="13" lengthAdjust="spacing" textLength="146" x="355" y="375.9575">PIs in INPROCESS state</text><path d="M636,346.7578 L636,386.7578 L863,386.7578 L863,356.7578 L853,346.7578 L636,346.7578 " fill="#FEFFDD" style="stroke:#181818;stroke-width:0.5;"/><path d="M853,346.7578 L853,356.7578 L863,356.7578 L853,346.7578 " fill="#FEFFDD" style="stroke:#181818;stroke-width:0.5;"/><text fill="#000000" font-family="sans-serif" font-size="13" lengthAdjust="spacing" textLength="206" x="642" y="363.8247">This has to be done one by one.</text><text fill="#000000" font-family="sans-serif" font-size="13" lengthAdjust="spacing" textLength="170" x="646" y="378.9575">There is no bulk polling API</text><polygon fill="#008000" points="355,409.1563,345,413.1563,355,417.1563,351,413.1563" style="stroke:#008000;stroke-width:1.0;"/><line style="stroke:#008000;stroke-width:1.0;" x1="349" x2="630.5" y1="413.1563" y2="413.1563"/><text fill="#000000" font-family="sans-serif" font-size="13" lengthAdjust="spacing" textLength="263" x="361" y="408.0903">All beneficiaries with debit scroll received</text><polygon fill="#181818" points="553,438.2891,563,442.2891,553,446.2891,557,442.2891" style="stroke:#181818;stroke-width:1.0;"/><line style="stroke:#181818;stroke-width:1.0;" x1="344" x2="559" y1="442.2891" y2="442.2891"/><text fill="#000000" font-family="sans-serif" font-size="13" lengthAdjust="spacing" textLength="197" x="351" y="437.2231">Update PI to COMPLETED state</text><polygon fill="#181818" points="79,482.5547,69,486.5547,79,490.5547,75,486.5547" style="stroke:#181818;stroke-width:1.0;"/><line style="stroke:#181818;stroke-width:1.0;" x1="73" x2="343" y1="486.5547" y2="486.5547"/><text fill="#000000" font-family="sans-serif" font-size="13" lengthAdjust="spacing" textLength="248" x="85" y="466.356">Update payment to COMPLETED state.</text><text fill="#000000" font-family="sans-serif" font-size="13" lengthAdjust="spacing" textLength="219" x="89" y="481.4888">Update beneficiaries to PAID state</text><polygon fill="#181818" points="619.5,552.5195,629.5,556.5195,619.5,560.5195,623.5,556.5195" style="stroke:#181818;stroke-width:1.0;"/><line style="stroke:#181818;stroke-width:1.0;" x1="344" x2="625.5" y1="556.5195" y2="556.5195"/><text fill="#000000" font-family="sans-serif" font-size="13" lengthAdjust="spacing" textLength="149" x="351" y="536.3208">Poll for FD status for all</text><text fill="#000000" font-family="sans-serif" font-size="13" lengthAdjust="spacing" textLength="176" x="355" y="551.4536">INPROCESS,COMPLETED PIs</text><path d="M636,499.5547 L636,584.5547 L909,584.5547 L909,509.5547 L899,499.5547 L636,499.5547 " fill="#FEFFDD" style="stroke:#181818;stroke-width:0.5;"/><path d="M899,499.5547 L899,509.5547 L909,509.5547 L899,499.5547 " fill="#FEFFDD" style="stroke:#181818;stroke-width:0.5;"/><text fill="#000000" font-family="sans-serif" font-size="13" lengthAdjust="spacing" textLength="139" x="642" y="516.6216">We will get all failures</text><text fill="#000000" font-family="sans-serif" font-size="13" lengthAdjust="spacing" textLength="159" x="642" y="531.7544">from a given time period</text><text fill="#000000" font-family="sans-serif" font-size="13" lengthAdjust="spacing" textLength="242" x="646" y="546.8872">across all PIs. Since there are no SLAs</text><text fill="#000000" font-family="sans-serif" font-size="13" lengthAdjust="spacing" textLength="244" x="646" y="562.02">for failures, we may get details for PIs</text><text fill="#000000" font-family="sans-serif" font-size="13" lengthAdjust="spacing" textLength="155" x="646" y="577.1528">marked completed also.</text><polygon fill="#008000" points="355,622.4844,345,626.4844,355,630.4844,351,626.4844" style="stroke:#008000;stroke-width:1.0;"/><line style="stroke:#008000;stroke-width:1.0;" x1="349" x2="630.5" y1="626.4844" y2="626.4844"/><text fill="#000000" font-family="sans-serif" font-size="13" lengthAdjust="spacing" textLength="168" x="361" y="606.2856">All beneficiaries across PIs</text><text fill="#000000" font-family="sans-serif" font-size="13" lengthAdjust="spacing" textLength="207" x="365" y="621.4185">with return scroll event from RBI</text><polygon fill="#181818" points="79,651.6172,69,655.6172,79,659.6172,75,655.6172" style="stroke:#181818;stroke-width:1.0;"/><line style="stroke:#181818;stroke-width:1.0;" x1="73" x2="343" y1="655.6172" y2="655.6172"/><text fill="#000000" font-family="sans-serif" font-size="13" lengthAdjust="spacing" textLength="233" x="85" y="650.5513">Update beneficiaries to FAILED state</text><!--SRC=[lLJBRjim4BphAnR9DJ7QekZ1Xm1gR1Six5Y8rERGzB2oLZ9XYHH8sed_lajMTctrOQU770H9vCvmTcQbN3_3nOCsAti1brDPBLsATQDLrA9nSY5RL0uIt3QaN5niv880xMu1j2d8mBk8L06vVevoppPRhnockdJCE3UeAZeY4vDP6XVOEaR-nBy_sX-XmnmjTPiVzkI7HPz5rks_VHCTCbxV-BqX9BgkeTG64W7MeLlRy8Qy-gXuqO9K8Ev49k9iF0eb52dj28mtOGZPKbfOSgzEGqvGQCMA-Cgt_ZPWacn9Xe2h55UiwnMqVAPK5SI9YBp0ws-NbI5ItsyEcnvwITYsHc-ew6lVDJ-4Bst1admj2uYJv7x-TQ-p1-hIs6FQBfsJm9vJyQU_MzKZUYsdkawwoQj8aK4djOA5LgKqJNWvqqHnnotSZjFqnIwUGFPi7Frhu8w9Nid6c4Nax5t9dmyQIHQUf5j2GRbqO1V6IpUq87d-HDxEPybqdFt7IFQG0szFLtMiaMkJM9mrkfC_URut- -hNaPp3aUaFn5PmUKKkm4gKzThmuO-gDBe1X8fDKU1amqsGaRhmrCYUMHiGp3Y0L2eUJnVoGRuue7GQUvOWQCTw1Ky43Mx3SGKvNhRTJohKDcXMLF1iDsrDZf-mjdhmmcWxRKp9Z25dGsvjr2veslWWGdVt7yMfu7wBP1ABwIwx7m00]--></g></svg>